<svg id="Capa_1" data-name="Capa 1" xmlns="http://www.w3.org/2000/svg" viewBox="0 0 85.3 85.09"><defs><style>.cls-1{fill:#fff;}</style></defs><g id="Grupo_299" data-name="Grupo 299"><path id="Trazado_345" data-name="Trazado 345" class="cls-1" d="M60,62.68c-3.81,0-7.62,0-11.44,0a2,2,0,0,0-1.54.8c-1.91,1.92-3.84,3.82-5.75,5.76-.83.84-1.76,1.34-2.72.35s-.5-1.9.38-2.73a28.9,28.9,0,0,0,3.8-4.17,37.26,37.26,0,0,1-5.49,0c-4.88-.75-8.7.75-11.55,4.8a16.6,16.6,0,0,1-1.86,1.89c-.8.81-1.7,1.17-2.6.27s-.62-1.78.21-2.6l4.25-4.21c-1.2-.17-2.1-.25-3-.44A15.34,15.34,0,0,1,14,37.51a1.85,1.85,0,0,0,.28-2.39A15.58,15.58,0,0,1,39.77,17.75a2.05,2.05,0,0,0,2.62.65,17.19,17.19,0,0,1,9.82-.23c1.18.31,2.47.64,2.15,2.17s-1.65,1.39-2.94,1.07a14.85,14.85,0,0,0-18,10A16.14,16.14,0,0,0,32.9,34c-.28,2.21-.93,2.64-3.09,1.93a12.06,12.06,0,0,0-15.37,7.42c0,.14-.1.27-.14.41A11.95,11.95,0,0,0,25.73,59.29q22,.24,44,0a11.89,11.89,0,0,0,12-11.79c0-.26,0-.51,0-.77A12.11,12.11,0,0,0,69.3,35.25a13.39,13.39,0,0,0-4.19.92c-1.56.56-2.46,0-2.62-1.69a18.82,18.82,0,0,0-.8-3.72,1.56,1.56,0,0,1,.8-2.05l.23-.08a1.6,1.6,0,0,1,2.07.94s0,.09,0,.13c.4.87.15,2.23,1.07,2.57S67.73,32,68.66,32a15.35,15.35,0,0,1,2.57,30.6,9.1,9.1,0,0,1-2.15.11,6.59,6.59,0,0,0-6.73,2.77,47.11,47.11,0,0,1-3.84,3.9c-.8.81-1.71,1.16-2.6.24s-.59-1.81.25-2.61l4-3.89-.2-.4M37.8,20.45A12.32,12.32,0,0,0,26,16.27c-7.58,1.33-12.16,10.09-8.88,17,.18.38.16,1.23,1.08.71A15.23,15.23,0,0,1,29,32.26c.55.11.76-.06.9-.62a18.5,18.5,0,0,1,7.87-11.19"/><path id="Trazado_346" data-name="Trazado 346" class="cls-1" d="M65.53,75.8a2,2,0,0,1-.77,1.69Q61.36,80.86,58,84.27c-.79.79-1.67,1.2-2.6.33s-.61-1.87.25-2.71q3.45-3.44,6.89-6.9a1.81,1.81,0,0,1,2.1-.52,1.37,1.37,0,0,1,.91,1.33"/><path id="Trazado_347" data-name="Trazado 347" class="cls-1" d="M39.25,85.06a1.64,1.64,0,0,1-1.57-.91,1.53,1.53,0,0,1,.24-1.85c2.51-2.54,5-5.09,7.6-7.58a1.63,1.63,0,0,1,2.27,2.33c-2.5,2.57-5,5.08-7.6,7.6a1.28,1.28,0,0,1-.94.41"/><path id="Trazado_348" data-name="Trazado 348" class="cls-1" d="M30.88,75.62a2.19,2.19,0,0,1-.8,1.85c-2.27,2.26-4.53,4.51-6.78,6.78-.79.8-1.69,1.23-2.6.36s-.62-1.86.25-2.72q3.47-3.44,6.9-6.9a1.79,1.79,0,0,1,2.1-.5,1.51,1.51,0,0,1,.93,1.14"/><path id="Trazado_349" data-name="Trazado 349" class="cls-1" d="M14.93,13.21a1.89,1.89,0,0,1-1,1.53,1.42,1.42,0,0,1-1.69-.22c-1.36-1.29-2.7-2.61-4-4a1.53,1.53,0,0,1,0-2.12,1.45,1.45,0,0,1,2-.41l.08.06a28.55,28.55,0,0,1,4.41,4.45,2,2,0,0,1,.24.68"/><path id="Trazado_350" data-name="Trazado 350" class="cls-1" d="M30,4.26c0,.94,0,1.87,0,2.81a1.47,1.47,0,0,1-1.42,1.54h0a1.47,1.47,0,0,1-1.75-1.11.91.91,0,0,1,0-.23,49.22,49.22,0,0,1,0-5.95A1.45,1.45,0,0,1,28.29,0l.1,0A1.52,1.52,0,0,1,30,1.48v.13c0,.88,0,1.76,0,2.65"/><path id="Trazado_351" data-name="Trazado 351" class="cls-1" d="M4.3,30c-.88,0-1.77,0-2.65,0A1.54,1.54,0,0,1,0,28.54v-.1a1.5,1.5,0,0,1,1.25-1.71l.17,0a48.63,48.63,0,0,1,5.79,0,1.52,1.52,0,0,1,1.39,1.76A1.53,1.53,0,0,1,7.05,30H4.3"/><path id="Trazado_352" data-name="Trazado 352" class="cls-1" d="M48.85,9.61a1.59,1.59,0,0,1-.23.64,33.19,33.19,0,0,1-4.45,4.42,1.36,1.36,0,0,1-1.91-.28l0,0a1.47,1.47,0,0,1-.13-2.07l0,0c1.31-1.42,2.69-2.77,4.08-4.1A1.48,1.48,0,0,1,47.94,8a1.63,1.63,0,0,1,.91,1.59"/><path id="Trazado_353" data-name="Trazado 353" class="cls-1" d="M59.13,22.22c1.09.18,1.71.72,1.66,1.77a1.5,1.5,0,0,1-1.47,1.55H59.2a1.54,1.54,0,0,1-1.67-1.4,1,1,0,0,1,0-.25,1.63,1.63,0,0,1,1.6-1.67h0"/></g></svg>