<svg id="Capa_1" data-name="Capa 1" xmlns="http://www.w3.org/2000/svg" xmlns:xlink="http://www.w3.org/1999/xlink" viewBox="0 0 248 104"><defs><style>.cls-1{fill:#093456;}.cls-2{fill:url(#Degradado_sin_nombre_3);}.cls-3{fill:url(#Degradado_sin_nombre_3-2);}.cls-4{fill:url(#Degradado_sin_nombre_3-3);}</style><linearGradient id="Degradado_sin_nombre_3" x1="5981.52" y1="-34802.82" x2="5031.16" y2="-33814.84" gradientTransform="matrix(0.05, 0, 0, -0.04, -148.44, -1286.11)" gradientUnits="userSpaceOnUse"><stop offset="0" stop-color="#1dbfd6"/><stop offset="1" stop-color="#093456"/></linearGradient><linearGradient id="Degradado_sin_nombre_3-2" x1="-656.78" y1="-471.01" x2="-657.6" y2="-470.01" gradientTransform="matrix(57.59, 0, 0, -38.01, 37958.28, -17847.23)" xlink:href="#Degradado_sin_nombre_3"/><linearGradient id="Degradado_sin_nombre_3-3" x1="-641.7" y1="-518.34" x2="-644.67" y2="-515.96" gradientTransform="matrix(15.97, 0, 0, -15.97, 10401.45, -8243.61)" xlink:href="#Degradado_sin_nombre_3"/></defs><g id="Grupo_293" data-name="Grupo 293"><g id="Grupo_295" data-name="Grupo 295"><g id="Grupo_294" data-name="Grupo 294"><path id="Trazado_357" data-name="Trazado 357" class="cls-1" d="M19.71,65.06a2.58,2.58,0,0,1,1.12.28,2.14,2.14,0,0,1,.89.74l9.21,14.17L29,80.18l9.44-14.1a2.16,2.16,0,0,1,1.86-1A2.42,2.42,0,0,1,42,65.7a2.15,2.15,0,0,1,.72,1.67V89.31a2.24,2.24,0,0,1-2.17,2.31h-.18A2.33,2.33,0,0,1,38.6,91a2.22,2.22,0,0,1-.66-1.65V71.46l1.48.34L31.69,83.58a3,3,0,0,1-.86.72,1.73,1.73,0,0,1-1,.27,1.7,1.7,0,0,1-1-.27,3.07,3.07,0,0,1-.85-.72L20.7,72.14l1-2V89.31A2.37,2.37,0,0,1,21.08,91a2.05,2.05,0,0,1-1.59.67A2,2,0,0,1,17.93,91a2.36,2.36,0,0,1-.6-1.64V67.37a2.19,2.19,0,0,1,.7-1.63A2.29,2.29,0,0,1,19.71,65.06Z"/><path id="Trazado_358" data-name="Trazado 358" class="cls-1" d="M57.34,92a11.11,11.11,0,0,1-5.59-1.34A9.42,9.42,0,0,1,48.11,87a10.73,10.73,0,0,1-1.27-5.23A11.46,11.46,0,0,1,48.23,76a9.72,9.72,0,0,1,3.62-3.69A9.26,9.26,0,0,1,56.58,71a8.56,8.56,0,0,1,3.66.8,10,10,0,0,1,3,2.18,10.51,10.51,0,0,1,2.1,3.2A9.83,9.83,0,0,1,66.17,81a2,2,0,0,1-.72,1.48,2.39,2.39,0,0,1-1.59.57H49.38l-1.14-3.79H62.15l-.83.76V79a3.48,3.48,0,0,0-.78-2,5.2,5.2,0,0,0-1.74-1.38,5,5,0,0,0-2.22-.51,6.92,6.92,0,0,0-2.12.3,4.1,4.1,0,0,0-1.71,1,5,5,0,0,0-1.14,1.94,9.62,9.62,0,0,0-.41,3.06,6.55,6.55,0,0,0,.85,3.47,5.83,5.83,0,0,0,5.06,2.9,8.37,8.37,0,0,0,2.23-.23,5,5,0,0,0,1.35-.54c.34-.22.65-.4.93-.55a2.93,2.93,0,0,1,1.29-.35,1.92,1.92,0,0,1,1.93,1.89h0a2.36,2.36,0,0,1-1.06,1.86A8.87,8.87,0,0,1,61,91.38,11.18,11.18,0,0,1,57.34,92Z"/><path id="Trazado_359" data-name="Trazado 359" class="cls-1" d="M86.37,63.58a2.2,2.2,0,0,1,1.63.64,2.27,2.27,0,0,1,.64,1.67V89.31A2.22,2.22,0,0,1,88,91a2.32,2.32,0,0,1-3.26,0,2.22,2.22,0,0,1-.64-1.64V87.45l.83.34A2.12,2.12,0,0,1,84.4,89,7,7,0,0,1,83,90.37a8.84,8.84,0,0,1-2.14,1.15,7.21,7.21,0,0,1-2.67.48,8.65,8.65,0,0,1-4.74-1.35,9.36,9.36,0,0,1-3.35-3.71,12.64,12.64,0,0,1,0-10.91,9.57,9.57,0,0,1,3.31-3.72A8.36,8.36,0,0,1,78,71a8.72,8.72,0,0,1,3,.49,8.82,8.82,0,0,1,2.37,1.25,7.49,7.49,0,0,1,1.55,1.53,2.47,2.47,0,0,1,.55,1.31L84.1,76V65.89a2.26,2.26,0,0,1,.64-1.65A2.18,2.18,0,0,1,86.37,63.58ZM78.71,87.83A5.2,5.2,0,0,0,81.63,87a5.59,5.59,0,0,0,2-2.28,7.14,7.14,0,0,0,.7-3.22,7.36,7.36,0,0,0-.7-3.26,5.56,5.56,0,0,0-2-2.27,5.48,5.48,0,0,0-5.8,0,5.64,5.64,0,0,0-2,2.27,7.36,7.36,0,0,0-.7,3.26,7.14,7.14,0,0,0,.7,3.22,5.67,5.67,0,0,0,2,2.28,5.09,5.09,0,0,0,2.88.83Z"/><path id="Trazado_360" data-name="Trazado 360" class="cls-1" d="M96.37,65.09a2.29,2.29,0,0,1,1.61.66,2.17,2.17,0,0,1,.7,1.65V89.3A2.16,2.16,0,0,1,98,91a2.34,2.34,0,0,1-1.66.66A2.24,2.24,0,0,1,94,89.49a.61.61,0,0,1,0-.19V67.4a2.19,2.19,0,0,1,.68-1.65A2.45,2.45,0,0,1,96.37,65.09Zm-.11,11h16.9v4.36H96.26Zm16.9-11a2.25,2.25,0,0,1,2.35,2.13V89.3a2.26,2.26,0,0,1-.67,1.65,2.38,2.38,0,0,1-1.76.66,2.23,2.23,0,0,1-1.61-.66,2.18,2.18,0,0,1-.7-1.65V67.4a2.16,2.16,0,0,1,.72-1.65,2.41,2.41,0,0,1,1.67-.66Z"/><path id="Trazado_361" data-name="Trazado 361" class="cls-1" d="M122.79,68.88a3,3,0,0,1-1.82-.42,1.73,1.73,0,0,1-.53-1.47v-.72a1.64,1.64,0,0,1,.58-1.5,3.16,3.16,0,0,1,1.8-.4,3.1,3.1,0,0,1,1.86.41,1.78,1.78,0,0,1,.53,1.48V67a1.7,1.7,0,0,1-.57,1.5A3.31,3.31,0,0,1,122.79,68.88Zm2.31,20.43a2.29,2.29,0,0,1-.65,1.64,2.32,2.32,0,0,1-3.26,0,2.28,2.28,0,0,1-.64-1.64V73.66a2.29,2.29,0,0,1,.64-1.65,2.34,2.34,0,0,1,3.26,0,2.29,2.29,0,0,1,.65,1.65Z"/><path id="Trazado_362" data-name="Trazado 362" class="cls-1" d="M128.58,88.48a2.09,2.09,0,0,1-.34-1.37,1.82,1.82,0,0,1,1-1.44,2,2,0,0,1,1.29-.32,2.15,2.15,0,0,1,1.33.7,8.58,8.58,0,0,0,2.31,1.7,6.61,6.61,0,0,0,3,.61,10.43,10.43,0,0,0,1.25-.17,2.34,2.34,0,0,0,1.2-.61,1.9,1.9,0,0,0,.51-1.45,1.67,1.67,0,0,0-.57-1.33,4.6,4.6,0,0,0-1.5-.83c-.62-.23-1.31-.45-2.07-.65s-1.58-.48-2.4-.76a9.58,9.58,0,0,1-2.26-1.08,5.18,5.18,0,0,1-1.66-1.76A5.43,5.43,0,0,1,129,77a5.08,5.08,0,0,1,1.06-3.23,6.94,6.94,0,0,1,2.75-2,8.83,8.83,0,0,1,3.54-.72,11.41,11.41,0,0,1,2.47.28,9.84,9.84,0,0,1,2.46.91,6,6,0,0,1,2,1.65,2.58,2.58,0,0,1,.49,1.36,1.62,1.62,0,0,1-.72,1.44,1.77,1.77,0,0,1-1.32.4,2,2,0,0,1-1.25-.51,4.4,4.4,0,0,0-1.73-1.32,5.89,5.89,0,0,0-2.48-.5,6.35,6.35,0,0,0-1.23.14,2.42,2.42,0,0,0-1.16.56,2.08,2.08,0,0,0,.08,2.77,4.31,4.31,0,0,0,1.53.83q1,.33,2.07.63t2.31.72a9.16,9.16,0,0,1,2.16,1.1,5.17,5.17,0,0,1,1.59,1.76,5.46,5.46,0,0,1,.61,2.75,5,5,0,0,1-1.14,3.3,7.18,7.18,0,0,1-2.84,2.06,9.1,9.1,0,0,1-3.49.7,13.39,13.39,0,0,1-4.47-.78A7.69,7.69,0,0,1,128.58,88.48Z"/><path id="Trazado_363" data-name="Trazado 363" class="cls-1" d="M148.25,71.73h9a2.06,2.06,0,0,1,2.12,2v.1a1.92,1.92,0,0,1-.6,1.46,2.09,2.09,0,0,1-1.52.58h-9a2.07,2.07,0,0,1-2.12-2v-.1a2,2,0,0,1,.6-1.46A2.1,2.1,0,0,1,148.25,71.73ZM152.31,67a2.14,2.14,0,0,1,1.61.66,2.34,2.34,0,0,1,.62,1.65V86.16a1.63,1.63,0,0,0,.21.87,1.16,1.16,0,0,0,.57.5,2,2,0,0,0,.77.15,2.17,2.17,0,0,0,.84-.17,2,2,0,0,1,.87-.17,1.28,1.28,0,0,1,1,.49,2,2,0,0,1-.35,2.87,2.35,2.35,0,0,1-.37.24,4.83,4.83,0,0,1-2.49.68,13,13,0,0,1-1.76-.13,4.79,4.79,0,0,1-1.82-.65,3.91,3.91,0,0,1-1.42-1.57,6.23,6.23,0,0,1-.57-2.92v-17A2.27,2.27,0,0,1,152.21,67Z"/><path id="Trazado_364" data-name="Trazado 364" class="cls-1" d="M182.81,81.5A10.71,10.71,0,0,1,181.43,87a9.91,9.91,0,0,1-3.72,3.69,10.89,10.89,0,0,1-10.42,0A9.88,9.88,0,0,1,163.58,87a11.5,11.5,0,0,1,0-11,10.11,10.11,0,0,1,3.71-3.72,10.78,10.78,0,0,1,10.42,0A10.06,10.06,0,0,1,181.43,76,10.7,10.7,0,0,1,182.81,81.5Zm-4.55,0a6.85,6.85,0,0,0-.77-3.35,5.87,5.87,0,0,0-2.09-2.22,5.69,5.69,0,0,0-5.8,0,5.76,5.76,0,0,0-2.08,2.22,7.52,7.52,0,0,0,0,6.67A5.76,5.76,0,0,0,169.6,87a5.69,5.69,0,0,0,5.8,0,5.87,5.87,0,0,0,2.09-2.22A6.82,6.82,0,0,0,178.26,81.5Z"/><path id="Trazado_365" data-name="Trazado 365" class="cls-1" d="M188.87,91.62a2.14,2.14,0,0,1-1.62-.66,2.27,2.27,0,0,1-.65-1.65V73.66a2.27,2.27,0,0,1,.65-1.65,2.33,2.33,0,0,1,3.25,0,2.27,2.27,0,0,1,.65,1.65v3.56l-.27-2.54A6.23,6.23,0,0,1,192,73.07a6.52,6.52,0,0,1,1.5-1.17,6.8,6.8,0,0,1,1.78-.7,8.16,8.16,0,0,1,1.9-.23,2.94,2.94,0,0,1,1.91.64,1.94,1.94,0,0,1,.78,1.52,2.25,2.25,0,0,1-.64,1.8,2.16,2.16,0,0,1-1.4.55,3.1,3.1,0,0,1-1.31-.26,3.11,3.11,0,0,0-1.35-.27,3.48,3.48,0,0,0-1.38.32,3.94,3.94,0,0,0-1.29,1,5.2,5.2,0,0,0-.94,1.69,6.79,6.79,0,0,0-.36,2.37v9a2.31,2.31,0,0,1-.65,1.65A2.19,2.19,0,0,1,188.87,91.62Z"/><path id="Trazado_366" data-name="Trazado 366" class="cls-1" d="M205,68.88a3,3,0,0,1-1.82-.42,1.76,1.76,0,0,1-.53-1.47v-.72a1.69,1.69,0,0,1,.58-1.5,3.16,3.16,0,0,1,1.8-.4,3.1,3.1,0,0,1,1.86.41,1.78,1.78,0,0,1,.53,1.48V67a1.7,1.7,0,0,1-.57,1.5A3.31,3.31,0,0,1,205,68.88Zm2.31,20.43a2.28,2.28,0,0,1-.64,1.64,2.32,2.32,0,0,1-3.26,0,2.29,2.29,0,0,1-.65-1.64V73.66a2.29,2.29,0,0,1,.65-1.65,2.34,2.34,0,0,1,3.26,0,2.29,2.29,0,0,1,.64,1.65Z"/><path id="Trazado_367" data-name="Trazado 367" class="cls-1" d="M228.4,71a2.21,2.21,0,0,1,2.27,2.32v16A2.24,2.24,0,0,1,230,91a2.32,2.32,0,0,1-3.26,0,2.29,2.29,0,0,1-.65-1.64V87.45l.84.34a2.12,2.12,0,0,1-.53,1.19A7.58,7.58,0,0,1,225,90.37a8.84,8.84,0,0,1-2.14,1.15,7.42,7.42,0,0,1-2.67.48,8.62,8.62,0,0,1-4.74-1.35,9.36,9.36,0,0,1-3.35-3.71,12.66,12.66,0,0,1,0-10.92,9.54,9.54,0,0,1,3.31-3.71A8.33,8.33,0,0,1,220,71a8.51,8.51,0,0,1,3,.49,9,9,0,0,1,2.37,1.25,7.49,7.49,0,0,1,1.55,1.53,2.47,2.47,0,0,1,.55,1.31l-1.37.49V73.28a2.29,2.29,0,0,1,.65-1.65A2.21,2.21,0,0,1,228.4,71Zm-7.66,16.87a5.13,5.13,0,0,0,2.92-.84,5.57,5.57,0,0,0,2-2.27,7.19,7.19,0,0,0,.7-3.22,7.33,7.33,0,0,0-.7-3.26,5.57,5.57,0,0,0-2-2.27,5.13,5.13,0,0,0-2.92-.84,5,5,0,0,0-2.88.84,5.57,5.57,0,0,0-2,2.27,7.33,7.33,0,0,0-.7,3.26,7.17,7.17,0,0,0,.7,3.22,5.57,5.57,0,0,0,2,2.27,5,5,0,0,0,2.88.84Z"/></g></g><g id="Grupo_297" data-name="Grupo 297"><g id="Grupo_296" data-name="Grupo 296"><path id="Trazado_368" data-name="Trazado 368" class="cls-2" d="M134.75,24.51v0h-.05Z"/><path id="Trazado_369" data-name="Trazado 369" class="cls-3" d="M144.21,34.67a19.09,19.09,0,0,0-.54-2.89H140a15.08,15.08,0,0,1,.8,4.56l0,1.74h1.76a6.72,6.72,0,0,1,6.7,6.71,8.22,8.22,0,0,1-1.59,5.13,6.21,6.21,0,0,1-4.55,2.29H105.58c-1.42,0-3.25-1.7-3.85-2.27h0a9,9,0,0,1-3-6.47,8.56,8.56,0,0,1,8.54-8.54,8.29,8.29,0,0,1,1.11.08l1.64.21.33-1.62a15.38,15.38,0,0,1,15-12.3,15.12,15.12,0,0,1,2,.14V17.86a19.38,19.38,0,0,0-2-.11,18.9,18.9,0,0,0-18.15,13.64A12.07,12.07,0,0,0,95.21,43.46a12.41,12.41,0,0,0,4.09,9.07h0c1,.88,3.45,3.22,6.27,3.22h37.53a9.67,9.67,0,0,0,7.4-3.73,11.77,11.77,0,0,0,2.28-7.24A10.26,10.26,0,0,0,144.21,34.67Z"/></g><path id="Trazado_370" data-name="Trazado 370" class="cls-4" d="M146,17.68h-4.09a.8.8,0,0,1-.8-.8h0V12.8a.79.79,0,0,0-.8-.8h-3a.8.8,0,0,0-.8.8h0v4.08a.79.79,0,0,1-.8.8h-4.08a.8.8,0,0,0-.8.8h0v3a.79.79,0,0,0,.8.8h4.08a.8.8,0,0,1,.8.8h0v4.09a.8.8,0,0,0,.8.8h3a.8.8,0,0,0,.8-.8h0V23.07a.8.8,0,0,1,.8-.8H146a.79.79,0,0,0,.8-.8h0v-3a.8.8,0,0,0-.8-.8Z"/></g></g></svg>