<?xml version="1.0" standalone="no"?>
<!DOCTYPE svg PUBLIC "-//W3C//DTD SVG 20010904//EN"
 "http://www.w3.org/TR/2001/REC-SVG-20010904/DTD/svg10.dtd">
<svg version="1.0" xmlns="http://www.w3.org/2000/svg"
 width="71.000000pt" height="71.000000pt" viewBox="0 0 71.000000 71.000000"
 preserveAspectRatio="xMidYMid meet">
<metadata>
Created by potrace 1.15, written by Peter Selinger 2001-2017
</metadata>
<g transform="translate(0.000000,71.000000) scale(0.100000,-0.100000)"
fill="#000000" stroke="none">
<path d="M305 621 c-84 -21 -152 -77 -182 -150 -30 -70 -17 -180 28 -238 16
-22 17 -22 33 -4 21 23 20 30 -3 24 -14 -3 -22 5 -35 36 -9 23 -16 51 -16 62
0 18 5 20 43 17 39 -3 42 -5 47 -36 6 -37 27 -40 22 -4 -2 13 3 30 9 39 10 12
10 16 -1 23 -18 11 0 76 20 72 7 -2 20 0 29 4 13 5 12 8 -6 15 -13 4 -23 12
-23 17 0 15 61 94 68 88 3 -4 5 -27 3 -51 -2 -35 1 -45 13 -45 13 0 16 11 16
51 0 58 7 57 51 -4 l30 -42 -28 -12 c-26 -11 -23 -14 16 -17 21 -2 36 -55 23
-77 -8 -12 -8 -20 -1 -25 6 -3 9 -18 8 -32 -5 -39 15 -39 21 0 5 31 8 33 48
36 39 3 42 1 42 -22 0 -32 -30 -96 -45 -96 -6 0 -17 6 -24 12 -11 11 -12 9 -3
-8 6 -11 18 -26 26 -33 13 -11 19 -5 40 37 35 70 41 119 22 184 -36 124 -174
209 -291 179z"/>
</g>
</svg>
